<mxfile host="app.diagrams.net" modified="2024-03-02T20:01:49.564Z" agent="Mozilla/5.0 (X11; Linux x86_64; rv:123.0) Gecko/20100101 Firefox/123.0" etag="ZQhKfujXTTlMgWv0H7lp" version="24.0.1" type="device">
  <diagram name="Page-1" id="0g5QgQWDzE0lu42d7pCt">
    <mxGraphModel dx="819" dy="434" grid="1" gridSize="10" guides="1" tooltips="1" connect="1" arrows="1" fold="1" page="1" pageScale="1" pageWidth="850" pageHeight="1100" math="0" shadow="0">
      <root>
        <mxCell id="0" />
        <mxCell id="1" parent="0" />
        <mxCell id="Bamo1R2v_xWlsM65hgs8-1" value="Aluno" style="shape=umlActor;verticalLabelPosition=bottom;verticalAlign=top;html=1;" vertex="1" parent="1">
          <mxGeometry x="410" y="255" width="30" height="60" as="geometry" />
        </mxCell>
        <mxCell id="Bamo1R2v_xWlsM65hgs8-2" value="&lt;div&gt;&amp;lt;&amp;lt;CRUD&amp;gt;&amp;gt;&lt;/div&gt;&lt;div&gt;Manter matérias&lt;br&gt;&lt;/div&gt;" style="ellipse;whiteSpace=wrap;html=1;" vertex="1" parent="1">
          <mxGeometry x="220" y="170" width="140" height="70" as="geometry" />
        </mxCell>
        <mxCell id="Bamo1R2v_xWlsM65hgs8-3" value="&lt;div&gt;&amp;lt;&amp;lt;CRUD&amp;gt;&amp;gt;&lt;/div&gt;&lt;div&gt;Manter anotações&lt;br&gt;&lt;/div&gt;" style="ellipse;whiteSpace=wrap;html=1;" vertex="1" parent="1">
          <mxGeometry x="220" y="340" width="140" height="70" as="geometry" />
        </mxCell>
        <mxCell id="Bamo1R2v_xWlsM65hgs8-4" value="Visualizar grade" style="ellipse;whiteSpace=wrap;html=1;" vertex="1" parent="1">
          <mxGeometry x="480" y="170" width="140" height="70" as="geometry" />
        </mxCell>
        <mxCell id="Bamo1R2v_xWlsM65hgs8-5" value="&lt;div&gt;&amp;lt;&amp;lt;CRUD&amp;gt;&amp;gt;&lt;/div&gt;&lt;div&gt;Manter presença&lt;/div&gt;&lt;div&gt;professores&lt;br&gt;&lt;/div&gt;" style="ellipse;whiteSpace=wrap;html=1;" vertex="1" parent="1">
          <mxGeometry x="480" y="320" width="140" height="70" as="geometry" />
        </mxCell>
        <mxCell id="Bamo1R2v_xWlsM65hgs8-6" style="rounded=0;orthogonalLoop=1;jettySize=auto;html=1;endArrow=none;endFill=0;" edge="1" parent="1" source="Bamo1R2v_xWlsM65hgs8-2" target="Bamo1R2v_xWlsM65hgs8-1">
          <mxGeometry relative="1" as="geometry">
            <mxPoint x="400" y="240" as="targetPoint" />
          </mxGeometry>
        </mxCell>
        <mxCell id="Bamo1R2v_xWlsM65hgs8-7" style="rounded=0;orthogonalLoop=1;jettySize=auto;html=1;entryX=1;entryY=0.3333333333333333;entryDx=0;entryDy=0;entryPerimeter=0;endArrow=none;endFill=0;" edge="1" parent="1" source="Bamo1R2v_xWlsM65hgs8-4" target="Bamo1R2v_xWlsM65hgs8-1">
          <mxGeometry relative="1" as="geometry" />
        </mxCell>
        <mxCell id="Bamo1R2v_xWlsM65hgs8-8" style="rounded=0;orthogonalLoop=1;jettySize=auto;html=1;endArrow=none;endFill=0;" edge="1" parent="1" source="Bamo1R2v_xWlsM65hgs8-3" target="Bamo1R2v_xWlsM65hgs8-1">
          <mxGeometry relative="1" as="geometry" />
        </mxCell>
        <mxCell id="Bamo1R2v_xWlsM65hgs8-9" style="rounded=0;orthogonalLoop=1;jettySize=auto;html=1;endArrow=none;endFill=0;" edge="1" parent="1" source="Bamo1R2v_xWlsM65hgs8-5" target="Bamo1R2v_xWlsM65hgs8-1">
          <mxGeometry relative="1" as="geometry" />
        </mxCell>
        <mxCell id="Bamo1R2v_xWlsM65hgs8-13" style="rounded=0;orthogonalLoop=1;jettySize=auto;html=1;endArrow=none;endFill=0;" edge="1" parent="1" source="Bamo1R2v_xWlsM65hgs8-11" target="Bamo1R2v_xWlsM65hgs8-1">
          <mxGeometry relative="1" as="geometry" />
        </mxCell>
        <mxCell id="Bamo1R2v_xWlsM65hgs8-11" value="Fazer cadastro" style="ellipse;whiteSpace=wrap;html=1;" vertex="1" parent="1">
          <mxGeometry x="220" y="255" width="140" height="70" as="geometry" />
        </mxCell>
        <mxCell id="Bamo1R2v_xWlsM65hgs8-14" style="rounded=0;orthogonalLoop=1;jettySize=auto;html=1;endArrow=none;endFill=0;" edge="1" parent="1" source="Bamo1R2v_xWlsM65hgs8-12" target="Bamo1R2v_xWlsM65hgs8-1">
          <mxGeometry relative="1" as="geometry" />
        </mxCell>
        <mxCell id="Bamo1R2v_xWlsM65hgs8-12" value="Fazer login" style="ellipse;whiteSpace=wrap;html=1;" vertex="1" parent="1">
          <mxGeometry x="490" y="250" width="140" height="70" as="geometry" />
        </mxCell>
      </root>
    </mxGraphModel>
  </diagram>
</mxfile>
